<?xml version="1.0" encoding="UTF-8"?>
<svg id="Layer_1" data-name="Layer 1" xmlns="http://www.w3.org/2000/svg" viewBox="0 0 2633.11 309.6">
  <defs>
    <style>
      .cls-1 {
        fill: #9cd633;
      }

      .cls-2 {
        fill: #fff;
      }
    </style>
  </defs>
  <rect x="-34.31" y="-17.59" width="2708.43" height="355.05"/>
  <g>
    <g>
      <path class="cls-2" d="M758.27,28.68v165.83c-.55,1.33-1.3,3.13-1.85,4.46l-80.9,80.86c-1.33.55-3.13,1.3-4.46,1.85h-104.08c-2.45,2.45-3.85,3.85-6.3,6.3v9c-4.91,4.91-7.71,7.71-12.62,12.62h-114.46c-2.45-2.45-3.85-3.85-6.3-6.3v-33.34c.55-1.33,1.3-3.13,1.85-4.46l54.61-54.57c1.33-.55,3.13-1.3,4.46-1.85h127.54c1.33-.55,3.13-1.3,4.46-1.85l59.07-59.03c.55-1.33,1.3-3.13,1.85-4.46v-64.82c-2.45-2.45-3.85-3.85-6.3-6.3h-224.93c-1.33.55-3.13,1.3-4.46,1.85l-24.23,24.21c-1.33.55-3.13,1.3-4.46,1.85h-75.23c-1.33-.55-3.13-1.3-4.46-1.85l-24.23-24.21c-1.33-.55-3.13-1.3-4.46-1.85H83.44c-2.45,2.45-3.85,3.85-6.3,6.3v64.8c.55,1.33,1.3,3.13,1.85,4.46l59.09,59.05c1.33.55,3.13,1.3,4.46,1.85h127.58c1.33.55,3.13,1.3,4.46,1.85l54.55,54.53c.55,1.33,1.3,3.13,1.85,4.46v33.38c-2.45,2.45-3.85,3.85-6.3,6.3h-115.35c-4.91-4.91-7.71-7.71-12.62-12.62v-9c-2.45-2.45-3.85-3.85-6.3-6.3h-103.16c-1.33-.55-3.13-1.3-4.46-1.85L1.85,198.95C1.3,197.62.55,195.82,0,194.49V28.44c.55-1.33,1.3-3.13,1.85-4.46L24,1.84C25.32,1.3,27.13.55,28.46,0h701.12l4.46,1.84,22.39,22.37c.55,1.33,1.3,3.13,1.85,4.46Z"/>
      <g>
        <polygon class="cls-1" points="629.14 109.42 629.14 143.63 597.38 172.27 456.64 172.27 456.64 146.08 493.24 109.42 629.14 109.42"/>
        <polygon class="cls-1" points="129.13 109.42 129.13 143.63 160.89 172.27 301.63 172.27 301.63 146.08 265.03 109.42 129.13 109.42"/>
      </g>
    </g>
    <g>
      <g>
        <path class="cls-2" d="M1096.23,97.56c.75.94,1.12,2.06,1.12,3.37v42.65c0,1.5-.38,2.62-1.12,3.36l-34.51,34.51c-.75.75-1.87,1.12-3.37,1.12h-144.78c-.38,0-.75.19-1.12.56-.38.38-.56.84-.56,1.4v61.17c0,.56-.19,1.03-.56,1.4-.75.38-1.22.56-1.41.56h-52.19c-1.13,0-2.16-.47-3.09-1.4-.94-.94-2.01-2.01-3.23-3.23-1.22-1.22-2.29-2.29-3.23-3.23-.94-1.31-1.4-2.43-1.4-3.37V73.14c0-.93.46-2.05,1.4-3.36l6.45-6.45c.93-.94,2.06-1.41,3.37-1.41h200.34c1.31,0,2.43.47,3.37,1.41,1.49,1.5,3.83,3.83,7.01,7.01,3.18,3.18,6.59,6.55,10.24,10.1,3.65,3.55,7.06,6.92,10.24,10.1,3.18,3.18,5.51,5.52,7.01,7.01ZM1032.54,143.57v-33.39c0-1.12-.47-2.15-1.4-3.08-.94-.94-2.15-2.15-3.65-3.65-1.5-1.49-2.99-2.99-4.49-4.49-1.5-1.49-2.99-2.99-4.49-4.49-1.5-1.49-2.72-2.61-3.65-3.36-.94-.94-1.96-1.4-3.09-1.4h-98.21c-1.12,0-1.68.66-1.68,1.96v61.45c0,.56.18.94.56,1.13.18.38.56.56,1.12.56h107.75c.94,0,2.06-.47,3.37-1.41l6.45-6.45c.93-.93,1.4-2.05,1.4-3.36Z"/>
        <path class="cls-2" d="M1298.07,89.7c-.38,0-.75.19-1.12.56-.38.38-.56.84-.56,1.4v154.05c0,.56-.19,1.03-.56,1.4-.75.38-1.22.56-1.41.56h-52.75c-.75,0-1.41-.28-1.97-.84l-7.57-7.58c-.56-.56-.84-1.21-.84-1.96V73.14c0-.93.46-2.05,1.4-3.36l6.45-6.45c.93-.94,2.06-1.41,3.37-1.41h192.21c.74,0,1.4.28,1.96.84,1.12,1.12,3.04,3.08,5.75,5.89,2.71,2.8,5.9,6.03,9.54,9.68,3.65,3.65,7.53,7.48,11.65,11.5,4.11,4.02,8,7.86,11.65,11.5,3.65,3.65,6.82,6.88,9.54,9.68,2.71,2.8,4.63,4.77,5.75,5.89.56.56.84,1.22.84,1.96v118.41c0,.75-.28,1.4-.84,1.96-.94.94-2.15,2.2-3.65,3.79-1.5,1.59-2.71,2.85-3.65,3.79-.56.56-1.31.84-2.25.84h-52.75c-.19,0-.66-.19-1.4-.56-.19-.19-.28-.65-.28-1.4v-126.83c0-.75-.28-1.4-.84-1.96-.94-1.13-2.67-2.9-5.19-5.33-2.52-2.43-5.15-5.05-7.85-7.86-2.71-2.8-5.33-5.42-7.86-7.85-2.52-2.43-4.26-4.21-5.19-5.33-.56-.56-1.22-.84-1.96-.84h-99.61Z"/>
        <path class="cls-2" d="M1749.82,61.92c1.12,0,1.68.66,1.68,1.97v24.13c0,.56-.09,1.03-.28,1.41-.75.38-1.22.56-1.4.56h-27.08c-6.27,0-12.91-.04-19.92-.14-7.02-.09-13.66-.14-19.92-.14h-26.79c-.56,0-1.03.19-1.41.56-.38.75-.56,1.22-.56,1.4v154.05c0,1.31-.66,1.96-1.96,1.96h-51.91c-1.12,0-2.15-.47-3.08-1.4-.94-.94-2.06-2.06-3.37-3.37-1.31-1.31-2.43-2.43-3.37-3.37-.94-.93-1.4-2.05-1.4-3.36V91.66c0-1.31-.56-1.96-1.68-1.96h-84.46c-1.31,0-1.96-.56-1.96-1.69v-24.13c0-.56.18-1.03.56-1.4.37-.38.84-.56,1.4-.56h246.92Z"/>
        <path class="cls-2" d="M2014.98,219.89c1.12,0,1.68.56,1.68,1.68v24.13c0,1.31-.56,1.96-1.68,1.96h-237.94c-1.31,0-2.44-.47-3.37-1.4l-6.45-6.45c-.94-.94-1.4-2.06-1.4-3.37v-33.39c0-7.86.04-16.18.14-24.97.09-8.79.14-17.12.14-24.97s.04-14.82.14-20.9c.09-6.08.14-10.24.14-12.49,0-1.49.37-2.62,1.12-3.36,1.87-1.87,5.33-5.33,10.38-10.38,5.05-5.05,10.38-10.43,15.99-16.14,5.61-5.7,10.94-11.08,15.99-16.13,5.05-5.05,8.51-8.51,10.38-10.38.93-.94,2.05-1.41,3.36-1.41h191.08c1.31,0,1.96.66,1.96,1.97v24.13c0,1.12-.66,1.69-1.96,1.69h-154.05c-1.31,0-2.43.47-3.36,1.4l-25.25,25.25c-.94.94-1.4,2.06-1.4,3.36v19.36c0,.19.18.66.56,1.4.18.19.65.28,1.4.28h163.59c1.12,0,1.68.66,1.68,1.96v24.13c0,1.31-.56,1.96-1.68,1.96h-163.59c-1.31,0-1.96.56-1.96,1.69v47.42c0,1.31.65,1.97,1.96,1.97h182.38Z"/>
        <path class="cls-2" d="M2101.96,116.36c-.94.75-1.4,1.87-1.4,3.36v25.67c0,5.9-.05,12.12-.14,18.66-.09,6.55-.14,12.82-.14,18.8v25.81c0,.94.46,2.06,1.4,3.36.93.94,2.06,2.01,3.37,3.23,1.3,1.22,2.43,2.29,3.36,3.23.94.94,2.06,1.4,3.37,1.4h163.3c1.12,0,1.69.56,1.69,1.68v24.13c0,1.31-.56,1.96-1.69,1.96h-219.14c-1.31,0-2.43-.47-3.36-1.4l-15.71-15.71c-.94-.94-1.4-2.06-1.4-3.37v-107.47c0-1.31.46-2.43,1.4-3.36,1.31-1.31,3.32-3.32,6.03-6.03,2.71-2.71,5.8-5.84,9.26-9.4,3.46-3.55,7.16-7.25,11.08-11.08,3.93-3.83,7.62-7.53,11.08-11.08,3.46-3.55,6.59-6.69,9.4-9.4,2.8-2.71,4.86-4.72,6.17-6.03.93-.94,1.96-1.41,3.08-1.41h182.1c1.12,0,1.69.66,1.69,1.97v24.13c0,1.12-.56,1.69-1.69,1.69h-144.78c-1.31,0-2.43.47-3.36,1.4-1.13,1.12-2.85,2.85-5.19,5.19-2.34,2.34-4.77,4.82-7.29,7.44-2.53,2.62-4.96,5.1-7.3,7.44-2.34,2.34-4.07,4.07-5.19,5.19Z"/>
        <path class="cls-2" d="M2557.08,70.9c.37.38.56.75.56,1.12v164.43c0,1.31-.47,2.43-1.4,3.37-.94.94-2.06,2.01-3.37,3.23-1.31,1.22-2.43,2.29-3.36,3.23-.94.94-1.97,1.4-3.09,1.4h-51.91c-1.31,0-1.96-.65-1.96-1.96v-79.69c0-.56-.19-1.03-.56-1.4-.38-.38-.84-.56-1.4-.56h-126.27c-.38,0-.75.19-1.12.56-.38.19-.56.66-.56,1.4v79.69c0,1.31-.66,1.96-1.97,1.96h-51.91c-1.31,0-2.44-.47-3.37-1.4l-6.45-6.45c-.94-.94-1.4-2.06-1.4-3.37V73.14c0-1.12.46-2.15,1.4-3.08.93-.93,2.01-2.06,3.23-3.37,1.21-1.3,2.29-2.43,3.23-3.36.93-.94,2.06-1.41,3.37-1.41h10.66c4.86,0,10,.05,15.43.14,5.42.09,10.56.19,15.43.28,4.87.1,8.32.14,10.38.14,1.31,0,1.97.56,1.97,1.68v70.15c0,.75.18,1.22.56,1.4.37.38.74.56,1.12.56h126.27c.56,0,1.02-.18,1.4-.56.37-.37.56-.84.56-1.4v-70.15c0-1.31.65-1.97,1.96-1.97h51.91c1.31,0,2.34.47,3.09,1.41,1.12.94,2.48,2.2,4.07,3.79,1.59,1.59,2.76,2.76,3.51,3.51Z"/>
        <path class="cls-2" d="M1193.37,70.33l-7.57-7.57c-.57-.57-1.23-.85-1.96-.85h-53.04c-.85,0-1.61.69-1.67,1.58-.03.06-.03.09-.03.16v173.66c0,.76.28,1.39.85,1.96l7.57,7.57c.57.57,1.23.85,1.96.85h53.04c.91,0,1.7-.76,1.7-1.7V72.32c0-.76-.28-1.42-.85-1.99Z"/>
      </g>
      <g>
        <path class="cls-2" d="M2570.3,38.18h24.52v4.71h-9.52v19.03h-5.48v-19.03h-9.52v-4.71Z"/>
        <path class="cls-2" d="M2633.11,38.18v23.74h-5.48v-17.67h-.54l-4.8,17.67h-7.88l-4.81-17.67h-.53v17.67h-5.48v-23.74h8.07v.02h1.33l5.03,18.99h.51l5.03-18.99h1.69v-.02h7.88Z"/>
      </g>
    </g>
  </g>
</svg>