<?xml version="1.0" encoding="UTF-8"?>
<svg id="Layer_1" data-name="Layer 1" xmlns="http://www.w3.org/2000/svg" viewBox="0 0 673.44 274.96">
  <defs>
    <style>
      .cls-1 {
        fill: #0e83fe;
      }
    </style>
  </defs>
  <path d="M673.44,25.47v147.28c-.49,1.18-1.15,2.78-1.64,3.96l-71.85,71.81c-1.18.49-2.78,1.15-3.96,1.64h-92.43c-2.18,2.18-3.42,3.42-5.6,5.6v7.99c-4.36,4.36-6.85,6.85-11.21,11.21h-101.65c-2.18-2.18-3.42-3.42-5.6-5.6v-29.61c.49-1.18,1.15-2.78,1.64-3.96l48.5-48.47c1.18-.49,2.78-1.15,3.96-1.64h113.27c1.18-.49,2.78-1.15,3.96-1.64l52.46-52.43c.49-1.18,1.15-2.78,1.64-3.96v-57.57c-2.18-2.18-3.42-3.42-5.6-5.6h-199.76c-1.18.49-2.78,1.15-3.96,1.64l-21.52,21.5c-1.18.49-2.78,1.15-3.96,1.64h-66.81c-1.18-.49-2.78-1.15-3.96-1.64l-21.52-21.5c-1.18-.49-2.78-1.15-3.96-1.64H74.1c-2.18,2.18-3.42,3.42-5.6,5.6v57.55c.49,1.18,1.15,2.78,1.64,3.96l52.48,52.44c1.18.49,2.78,1.15,3.96,1.64h113.31c1.18.49,2.78,1.15,3.96,1.64l48.45,48.43c.49,1.18,1.15,2.78,1.64,3.96v29.64c-2.18,2.18-3.42,3.42-5.6,5.6h-102.45c-4.36-4.36-6.85-6.85-11.21-11.21v-7.99c-2.18-2.18-3.42-3.42-5.6-5.6h-91.62c-1.18-.49-2.78-1.15-3.96-1.64L1.64,176.69c-.49-1.18-1.15-2.78-1.64-3.96V25.26c.49-1.18,1.15-2.78,1.64-3.96L21.31,1.64c1.18-.49,2.78-1.15,3.96-1.64h622.68c1.18.49,2.78,1.15,3.96,1.64l19.88,19.87c.49,1.18,1.15,2.78,1.64,3.96Z"/>
  <g>
    <polygon class="cls-1" points="558.75 97.18 558.75 127.56 530.55 153 405.55 153 405.55 129.74 438.06 97.18 558.75 97.18"/>
    <polygon class="cls-1" points="114.68 97.18 114.68 127.56 142.89 153 267.89 153 267.89 129.74 235.38 97.18 114.68 97.18"/>
  </g>
</svg>