<?xml version="1.0" encoding="UTF-8"?>
<svg id="Layer_1" data-name="Layer 1" xmlns="http://www.w3.org/2000/svg" viewBox="0 0 1040.29 154.6">
  <defs>
    <style>
      .cls-1 {
        fill: #9cd633;
      }

      .cls-2 {
        fill: #fff;
      }
    </style>
  </defs>
  <rect x="-5.83" y="-9.09" width="1051.94" height="188.69"/>
  <g>
    <g>
      <path class="cls-2" d="M151.67,21.68c.45.57.68,1.25.68,2.05v25.93c0,.91-.23,1.59-.68,2.05l-20.98,20.99c-.46.46-1.14.68-2.05.68H40.61c-.23,0-.46.12-.68.34s-.34.51-.34.85v37.2c0,.34-.12.63-.34.85-.46.23-.74.34-.85.34H6.65c-.68,0-1.31-.28-1.88-.85-.57-.57-1.22-1.22-1.96-1.96-.74-.74-1.39-1.39-1.96-1.96-.57-.8-.85-1.48-.85-2.05V6.83c0-.57.28-1.25.85-2.05L4.78.86C5.34.29,6.03,0,6.82,0h121.82c.8,0,1.48.29,2.05.85.91.91,2.33,2.33,4.26,4.26,1.93,1.94,4.01,3.98,6.23,6.14,2.22,2.16,4.29,4.21,6.23,6.14,1.93,1.94,3.35,3.36,4.26,4.26ZM112.95,49.66v-20.3c0-.68-.29-1.3-.85-1.88-.57-.57-1.31-1.31-2.22-2.22-.91-.91-1.82-1.82-2.73-2.73-.91-.91-1.82-1.82-2.73-2.73-.91-.91-1.65-1.59-2.22-2.05-.57-.57-1.19-.85-1.88-.85h-59.71c-.68,0-1.02.4-1.02,1.19v37.36c0,.34.11.57.34.68.11.23.34.34.68.34h65.52c.57,0,1.25-.28,2.05-.85l3.92-3.92c.57-.57.85-1.25.85-2.05Z"/>
      <path class="cls-2" d="M274.4,16.9c-.23,0-.46.11-.68.34-.23.23-.34.51-.34.85v93.67c0,.34-.12.63-.34.85-.46.23-.74.34-.85.34h-32.07c-.46,0-.85-.17-1.2-.51l-4.61-4.61c-.34-.34-.51-.74-.51-1.19V6.83c0-.57.28-1.25.85-2.05l3.92-3.92c.57-.57,1.25-.85,2.05-.85h116.87c.45,0,.85.17,1.19.51.68.68,1.85,1.88,3.5,3.58,1.65,1.71,3.58,3.67,5.8,5.89,2.22,2.22,4.58,4.55,7.08,6.99,2.5,2.45,4.86,4.78,7.08,6.99,2.22,2.22,4.15,4.18,5.8,5.89,1.65,1.71,2.82,2.9,3.5,3.58.34.34.51.74.51,1.19v72c0,.46-.17.85-.51,1.19-.57.57-1.31,1.34-2.22,2.3-.91.97-1.65,1.73-2.22,2.3-.34.34-.8.51-1.37.51h-32.08c-.11,0-.4-.11-.85-.34-.12-.11-.17-.4-.17-.85V34.64c0-.45-.17-.85-.51-1.19-.57-.68-1.62-1.76-3.16-3.24-1.53-1.48-3.13-3.07-4.78-4.78-1.65-1.71-3.24-3.3-4.78-4.78-1.53-1.48-2.59-2.56-3.16-3.24-.34-.34-.74-.51-1.19-.51h-60.57Z"/>
      <path class="cls-2" d="M549.09,0c.68,0,1.02.4,1.02,1.2v14.67c0,.34-.06.63-.17.85-.46.23-.74.34-.85.34h-16.47c-3.81,0-7.85-.03-12.11-.09-4.27-.06-8.31-.08-12.11-.08h-16.29c-.34,0-.63.11-.85.34-.23.46-.34.74-.34.85v93.67c0,.8-.4,1.19-1.19,1.19h-31.56c-.68,0-1.31-.28-1.88-.85-.57-.57-1.25-1.25-2.05-2.05-.8-.8-1.48-1.48-2.05-2.05-.57-.57-.85-1.25-.85-2.05V18.09c0-.8-.34-1.19-1.02-1.19h-51.36c-.8,0-1.19-.34-1.19-1.03V1.2c0-.34.11-.62.34-.85.23-.23.51-.34.85-.34h150.14Z"/>
      <path class="cls-2" d="M710.32,96.07c.68,0,1.02.34,1.02,1.02v14.67c0,.8-.34,1.19-1.02,1.19h-144.68c-.8,0-1.48-.28-2.05-.85l-3.92-3.92c-.57-.57-.85-1.25-.85-2.05v-20.3c0-4.78.03-9.84.08-15.19.06-5.35.09-10.41.09-15.19s.03-9.01.08-12.71c.06-3.7.09-6.23.09-7.59,0-.91.23-1.59.68-2.05,1.14-1.14,3.24-3.24,6.31-6.31,3.07-3.07,6.31-6.34,9.73-9.81,3.41-3.47,6.65-6.74,9.73-9.81,3.07-3.07,5.17-5.17,6.31-6.31.57-.57,1.25-.85,2.05-.85h116.19c.8,0,1.19.4,1.19,1.2v14.67c0,.68-.4,1.03-1.19,1.03h-93.67c-.8,0-1.48.28-2.05.85l-15.36,15.36c-.57.57-.85,1.25-.85,2.05v11.77c0,.12.11.4.34.85.11.12.4.17.85.17h99.47c.68,0,1.02.4,1.02,1.19v14.67c0,.8-.34,1.19-1.02,1.19h-99.47c-.8,0-1.19.34-1.19,1.03v28.83c0,.8.4,1.2,1.19,1.2h110.9Z"/>
      <path class="cls-2" d="M763.21,33.11c-.57.45-.85,1.14-.85,2.05v15.61c0,3.58-.03,7.37-.09,11.35-.06,3.98-.08,7.79-.08,11.43v15.7c0,.57.28,1.25.85,2.05.57.57,1.25,1.22,2.05,1.96.79.74,1.47,1.39,2.05,1.96.57.57,1.25.85,2.05.85h99.3c.68,0,1.03.34,1.03,1.02v14.67c0,.8-.34,1.19-1.03,1.19h-133.25c-.8,0-1.48-.28-2.05-.85l-9.55-9.55c-.57-.57-.85-1.25-.85-2.05V35.16c0-.8.28-1.48.85-2.05.8-.8,2.02-2.02,3.67-3.67s3.53-3.55,5.63-5.72c2.1-2.16,4.35-4.41,6.74-6.74,2.39-2.33,4.63-4.58,6.74-6.74,2.1-2.16,4.01-4.07,5.72-5.72,1.71-1.65,2.96-2.87,3.75-3.67.57-.57,1.19-.85,1.88-.85h110.73c.68,0,1.03.4,1.03,1.2v14.67c0,.68-.34,1.03-1.03,1.03h-88.04c-.8,0-1.48.28-2.05.85-.68.68-1.74,1.74-3.16,3.16-1.42,1.42-2.9,2.93-4.44,4.52-1.54,1.59-3.02,3.1-4.44,4.52-1.42,1.42-2.47,2.47-3.16,3.16Z"/>
      <path class="cls-2" d="M1039.95,5.47c.23.23.34.46.34.68v99.98c0,.8-.29,1.48-.85,2.05-.57.57-1.25,1.22-2.05,1.96-.8.74-1.48,1.39-2.05,1.96-.57.57-1.2.85-1.88.85h-31.56c-.8,0-1.19-.4-1.19-1.19v-48.45c0-.34-.12-.62-.34-.85-.23-.23-.51-.34-.85-.34h-76.78c-.23,0-.46.12-.68.34-.23.11-.34.4-.34.85v48.45c0,.8-.4,1.19-1.2,1.19h-31.56c-.8,0-1.48-.28-2.05-.85l-3.92-3.92c-.57-.57-.85-1.25-.85-2.05V6.83c0-.68.28-1.3.85-1.88.57-.57,1.22-1.25,1.96-2.05.74-.79,1.39-1.48,1.96-2.05.57-.57,1.25-.85,2.05-.85h6.48c2.96,0,6.08.03,9.38.09,3.3.06,6.42.12,9.38.17,2.96.06,5.06.09,6.31.09.8,0,1.2.34,1.2,1.02v42.65c0,.46.11.74.34.85.23.23.45.34.68.34h76.78c.34,0,.62-.11.85-.34.23-.23.34-.51.34-.85V1.37c0-.8.4-1.2,1.19-1.2h31.56c.8,0,1.42.29,1.88.85.68.57,1.51,1.34,2.47,2.3.97.97,1.68,1.68,2.13,2.13Z"/>
      <path class="cls-2" d="M210.74,5.12l-4.6-4.6C205.79.17,205.38,0,204.94,0h-32.25C172.18,0,171.72.42,171.68.96c-.02.04-.02.06-.02.1v105.59c0,.46.17.84.52,1.19l4.6,4.6c.35.35.75.52,1.19.52h32.25c.56,0,1.04-.46,1.04-1.04V6.33c0-.46-.17-.86-.52-1.21Z"/>
    </g>
    <polygon class="cls-1" points="672.45 128.61 672.45 142.75 659.32 154.6 571.94 154.6 571.94 143.77 587.08 128.61 672.45 128.61"/>
    <polygon class="cls-1" points="336.7 128.61 336.7 142.75 349.83 154.6 437.2 154.6 437.2 143.77 422.07 128.61 336.7 128.61"/>
  </g>
</svg>