<?xml version="1.0" encoding="UTF-8" standalone="no"?>
<svg
   id="Layer_1"
   data-name="Layer 1"
   viewBox="0 0 453521.44 75603.002"
   version="1.1"
   sodipodi:docname="PT - LogoMark - BLGR.svg"
   inkscape:export-filename="PT - LogoMark - BLGR.png"
   inkscape:export-xdpi="5.5862675"
   inkscape:export-ydpi="5.5862675"
   width="453521.44"
   height="75603"
   xmlns:inkscape="http://www.inkscape.org/namespaces/inkscape"
   xmlns:sodipodi="http://sodipodi.sourceforge.net/DTD/sodipodi-0.dtd"
   xmlns="http://www.w3.org/2000/svg"
   xmlns:svg="http://www.w3.org/2000/svg">
  <sodipodi:namedview
     id="namedview2"
     pagecolor="#505050"
     bordercolor="#eeeeee"
     borderopacity="1"
     inkscape:showpageshadow="0"
     inkscape:pageopacity="0"
     inkscape:pagecheckerboard="0"
     inkscape:deskcolor="#505050" />
  <defs
     id="defs1">
    <style
       id="style1">
      .cls-1 {
        fill: #9cd633;
      }

      .cls-2 {
        fill: #0e83fe;
      }
    </style>
  </defs>
  <path
     class="cls-2"
     d="m 423.84,102.48422 v 37.4949 c -0.12852,0.30041 -0.30165,0.70774 -0.43017,1.00815 l -18.8459,18.28157 c -0.3095,0.12474 -0.72917,0.29277 -1.03868,0.41751 h -24.24394 c -0.5718,0.55499 -0.89705,0.87068 -1.46885,1.42567 v 2.03411 c -1.14361,1.10998 -1.79673,1.74389 -2.94033,2.85387 h -26.6623 c -0.5718,-0.55499 -0.89704,-0.87067 -1.46885,-1.42566 v -7.53819 c 0.12853,-0.30041 0.30164,-0.70774 0.43016,-1.00815 l 12.72131,-12.33961 c 0.30951,-0.12474 0.72919,-0.29277 1.0387,-0.41751 h 29.71016 c 0.3095,-0.12475 0.72917,-0.29277 1.03868,-0.41752 L 405.44,129.5056 c 0.12852,-0.30041 0.30163,-0.70774 0.43016,-1.00815 v -14.65631 c -0.5718,-0.55499 -0.89704,-0.87067 -1.46885,-1.42566 h -52.39606 c -0.30951,0.12474 -0.72918,0.29277 -1.03869,0.41751 l -5.64459,5.47353 c -0.30951,0.12474 -0.72918,0.29277 -1.03869,0.41751 h -17.52393 c -0.30951,-0.12474 -0.72918,-0.29277 -1.03869,-0.41751 l -5.64459,-5.47353 c -0.30951,-0.12474 -0.72918,-0.29277 -1.03869,-0.41751 h -52.40131 c -0.5718,0.55499 -0.89706,0.87067 -1.46886,1.42566 v 14.65122 c 0.12853,0.30041 0.30164,0.70774 0.43016,1.00815 l 13.76525,13.3503 c 0.30951,0.12475 0.72918,0.29277 1.03869,0.41752 h 29.72066 c 0.3095,0.12475 0.72918,0.29277 1.03868,0.41752 l 12.70821,12.32942 c 0.12852,0.30041 0.30163,0.70774 0.43016,1.00815 v 7.54583 c -0.57181,0.55499 -0.89705,0.87067 -1.46886,1.42566 h -26.87213 c -1.1436,-1.10998 -1.79672,-1.74389 -2.94033,-2.85387 v -2.03412 c -0.5718,-0.55499 -0.89704,-0.87067 -1.46884,-1.42566 h -24.03148 c -0.30951,-0.12474 -0.72918,-0.29277 -1.03869,-0.41751 l -18.84853,-18.28157 c -0.12853,-0.30041 -0.30164,-0.70774 -0.43016,-1.00815 v -37.54328 c 0.12852,-0.3004 0.30163,-0.70774 0.43016,-1.00814 l 5.15935,-5.005094 c 0.3095,-0.124746 0.72918,-0.29277 1.03868,-0.417516 h 163.3259 c 0.30951,0.124746 0.72919,0.29277 1.0387,0.417516 l 5.21442,5.058554 c 0.12853,0.30041 0.30164,0.70774 0.43016,1.00815 z"
     id="path1"
     style="stroke-width:0.25841" />
  <g
     id="g2"
     transform="matrix(0.26229508,0,0,0.25458248,247.2,96)">
    <polygon
       class="cls-1"
       points="558.75,97.18 558.75,127.56 530.55,153 405.55,153 405.55,129.74 438.06,97.18 "
       id="polygon1" />
    <polygon
       class="cls-1"
       points="114.68,97.18 114.68,127.56 142.89,153 267.89,153 267.89,129.74 235.38,97.18 "
       id="polygon2" />
  </g>
</svg>
