<?xml version="1.0" encoding="UTF-8"?>
<svg id="Layer_1" data-name="Layer 1" xmlns="http://www.w3.org/2000/svg" viewBox="0 0 1772.55 209.09">
  <defs>
    <style>
      .cls-1 {
        fill: #0e83fe;
      }
    </style>
  </defs>
  <g>
    <path class="cls-1" d="M248.96,59.26c.75.94,1.12,2.06,1.12,3.36v42.57c0,1.49-.37,2.62-1.12,3.36l-34.44,34.45c-.75.75-1.87,1.12-3.36,1.12H66.65c-.38,0-.75.19-1.12.56s-.56.84-.56,1.4v61.05c0,.56-.19,1.03-.56,1.4-.75.37-1.22.56-1.4.56H10.92c-1.12,0-2.15-.47-3.08-1.4-.94-.93-2.01-2.01-3.22-3.22-1.22-1.21-2.29-2.29-3.22-3.22-.94-1.3-1.4-2.42-1.4-3.36V34.89c0-.93.46-2.05,1.4-3.36l6.44-6.44c.93-.93,2.05-1.4,3.36-1.4h199.95c1.3,0,2.42.47,3.36,1.4,1.49,1.49,3.82,3.83,7,7,3.17,3.18,6.58,6.54,10.22,10.08,3.64,3.55,7.05,6.91,10.22,10.08,3.17,3.18,5.5,5.51,7,7ZM185.39,105.19v-33.33c0-1.12-.47-2.14-1.4-3.08-.94-.93-2.15-2.14-3.64-3.64-1.5-1.49-2.99-2.98-4.48-4.48-1.49-1.49-2.99-2.98-4.48-4.48-1.5-1.49-2.71-2.61-3.64-3.36-.94-.93-1.96-1.4-3.08-1.4h-98.01c-1.12,0-1.68.65-1.68,1.96v61.33c0,.56.18.94.56,1.12.18.37.56.56,1.12.56h107.54c.93,0,2.05-.47,3.36-1.4l6.44-6.44c.93-.93,1.4-2.05,1.4-3.36Z"/>
    <path class="cls-1" d="M450.4,51.42c-.38,0-.75.19-1.12.56-.38.37-.56.84-.56,1.4v153.75c0,.56-.19,1.03-.56,1.4-.75.37-1.22.56-1.4.56h-52.65c-.75,0-1.4-.28-1.96-.84l-7.56-7.56c-.56-.56-.84-1.21-.84-1.96V34.89c0-.93.46-2.05,1.4-3.36l6.44-6.44c.93-.93,2.05-1.4,3.36-1.4h191.83c.74,0,1.4.28,1.96.84,1.12,1.12,3.03,3.08,5.74,5.88,2.7,2.8,5.88,6.02,9.52,9.66,3.64,3.64,7.51,7.47,11.62,11.48,4.1,4.02,7.98,7.84,11.62,11.48,3.64,3.64,6.81,6.86,9.52,9.66,2.7,2.8,4.62,4.76,5.74,5.88.56.56.84,1.21.84,1.96v118.18c0,.75-.28,1.4-.84,1.96-.94.94-2.15,2.2-3.64,3.78-1.5,1.59-2.71,2.85-3.64,3.78-.56.56-1.31.84-2.24.84h-52.65c-.19,0-.65-.19-1.4-.56-.19-.19-.28-.65-.28-1.4v-126.58c0-.75-.28-1.4-.84-1.96-.94-1.12-2.66-2.89-5.18-5.32-2.52-2.42-5.14-5.04-7.84-7.84-2.71-2.8-5.32-5.41-7.84-7.84-2.52-2.42-4.25-4.2-5.18-5.32-.56-.56-1.22-.84-1.96-.84h-99.42Z"/>
    <path class="cls-1" d="M901.27,23.69c1.12,0,1.68.66,1.68,1.96v24.08c0,.56-.09,1.03-.28,1.4-.75.37-1.22.56-1.4.56h-27.03c-6.25,0-12.88-.04-19.88-.14-7-.09-13.63-.14-19.88-.14h-26.74c-.56,0-1.03.19-1.4.56-.37.75-.56,1.21-.56,1.4v153.75c0,1.31-.66,1.96-1.96,1.96h-51.81c-1.12,0-2.15-.47-3.08-1.4-.94-.93-2.06-2.05-3.36-3.36-1.31-1.3-2.43-2.42-3.36-3.36-.93-.93-1.4-2.05-1.4-3.36V53.38c0-1.3-.56-1.96-1.68-1.96h-84.29c-1.31,0-1.96-.56-1.96-1.68v-24.08c0-.56.18-1.03.56-1.4.37-.37.84-.56,1.4-.56h246.44Z"/>
    <path class="cls-1" d="M1165.91,181.36c1.12,0,1.68.56,1.68,1.68v24.09c0,1.31-.56,1.96-1.68,1.96h-237.48c-1.31,0-2.43-.47-3.36-1.4l-6.44-6.44c-.94-.93-1.4-2.05-1.4-3.36v-33.32c0-7.84.04-16.15.14-24.93.09-8.77.14-17.08.14-24.93s.04-14.79.14-20.86c.09-6.07.14-10.22.14-12.46,0-1.49.37-2.61,1.12-3.36,1.86-1.86,5.32-5.32,10.36-10.36,5.04-5.04,10.36-10.41,15.96-16.1,5.6-5.69,10.92-11.06,15.96-16.1,5.04-5.04,8.49-8.49,10.36-10.36.93-.93,2.05-1.4,3.36-1.4h190.71c1.3,0,1.96.66,1.96,1.96v24.08c0,1.12-.65,1.68-1.96,1.68h-153.75c-1.31,0-2.43.47-3.36,1.4l-25.2,25.2c-.94.93-1.4,2.05-1.4,3.36v19.32c0,.19.18.65.56,1.4.18.19.65.28,1.4.28h163.27c1.12,0,1.68.66,1.68,1.96v24.09c0,1.31-.56,1.96-1.68,1.96h-163.27c-1.31,0-1.96.56-1.96,1.68v47.32c0,1.31.65,1.96,1.96,1.96h182.03Z"/>
    <path class="cls-1" d="M1252.73,78.02c-.94.75-1.4,1.87-1.4,3.36v25.62c0,5.88-.05,12.09-.14,18.62-.09,6.54-.14,12.79-.14,18.76v25.76c0,.93.46,2.06,1.4,3.36.93.94,2.05,2.01,3.36,3.22,1.3,1.22,2.42,2.29,3.36,3.22.93.93,2.05,1.4,3.36,1.4h162.98c1.12,0,1.68.56,1.68,1.68v24.09c0,1.31-.56,1.96-1.68,1.96h-218.71c-1.31,0-2.43-.47-3.36-1.4l-15.68-15.68c-.94-.93-1.4-2.05-1.4-3.36v-107.26c0-1.3.46-2.42,1.4-3.36,1.3-1.3,3.31-3.31,6.02-6.02s5.79-5.83,9.24-9.38c3.45-3.54,7.14-7.23,11.06-11.06,3.92-3.82,7.6-7.51,11.06-11.06,3.45-3.55,6.58-6.67,9.38-9.38,2.8-2.7,4.85-4.71,6.16-6.02.93-.93,1.96-1.4,3.08-1.4h181.75c1.12,0,1.68.66,1.68,1.96v24.08c0,1.12-.56,1.68-1.68,1.68h-144.5c-1.31,0-2.43.47-3.36,1.4-1.12,1.12-2.85,2.85-5.18,5.18-2.34,2.34-4.76,4.81-7.28,7.42-2.52,2.62-4.95,5.09-7.28,7.42-2.33,2.34-4.06,4.06-5.18,5.18Z"/>
    <path class="cls-1" d="M1706.96,32.65c.37.38.56.75.56,1.12v164.11c0,1.31-.47,2.43-1.4,3.36-.94.93-2.06,2.01-3.36,3.22-1.31,1.21-2.43,2.29-3.36,3.22-.94.93-1.96,1.4-3.08,1.4h-51.81c-1.31,0-1.96-.65-1.96-1.96v-79.53c0-.56-.19-1.03-.56-1.4-.38-.37-.84-.56-1.4-.56h-126.02c-.38,0-.75.19-1.12.56-.38.19-.56.65-.56,1.4v79.53c0,1.31-.66,1.96-1.96,1.96h-51.81c-1.31,0-2.43-.47-3.36-1.4l-6.44-6.44c-.94-.93-1.4-2.05-1.4-3.36V34.89c0-1.12.46-2.14,1.4-3.08.93-.93,2-2.05,3.22-3.36,1.21-1.3,2.28-2.42,3.22-3.36.93-.93,2.05-1.4,3.36-1.4h10.64c4.85,0,9.98.05,15.4.14,5.41.09,10.54.19,15.4.28,4.86.1,8.3.14,10.36.14,1.3,0,1.96.56,1.96,1.68v70.01c0,.75.18,1.22.56,1.4.37.38.74.56,1.12.56h126.02c.56,0,1.02-.18,1.4-.56.37-.37.56-.84.56-1.4V25.93c0-1.3.65-1.96,1.96-1.96h51.81c1.3,0,2.33.47,3.08,1.4,1.12.93,2.47,2.2,4.06,3.78,1.58,1.59,2.75,2.75,3.5,3.5Z"/>
    <path class="cls-1" d="M345.9,32.08l-7.56-7.56c-.57-.57-1.23-.85-1.95-.85h-52.93c-.85,0-1.61.69-1.67,1.57-.03.06-.03.09-.03.16v173.32c0,.76.28,1.39.85,1.95l7.56,7.56c.57.57,1.23.85,1.95.85h52.93c.91,0,1.7-.76,1.7-1.7V34.07c0-.76-.28-1.42-.85-1.98Z"/>
  </g>
  <g>
    <path class="cls-1" d="M1709.87,0h24.48v4.7h-9.5v18.99h-5.47V4.7h-9.5V0Z"/>
    <path class="cls-1" d="M1772.55,0v23.69h-5.47V6.05h-.54l-4.79,17.64h-7.86l-4.8-17.64h-.53v17.64h-5.47V0h8.05v.02h1.32l5.02,18.96h.5L1763,.02h1.69V0h7.86Z"/>
  </g>
</svg>