<?xml version="1.0" encoding="UTF-8"?>
<svg xmlns="http://www.w3.org/2000/svg" width="256" height="256" xmlns:xlink="http://www.w3.org/1999/xlink" viewBox="0 0 256 256">
  <defs>
    <style>
      .cls-1 {
        fill: url(#radial-gradient-2);
      }

      .cls-2 {
        filter: url(#outer-glow-1);
      }

      .cls-3 {
        fill: url(#radial-gradient);
      }

      .cls-4 {
        fill: #06a2f9;
      }
    </style>
    <radialGradient id="radial-gradient" cx="128" cy="128" fx="128" fy="128" r="314.54" gradientUnits="userSpaceOnUse">
      <stop offset="0" stop-color="#06a2f9" stop-opacity="0"/>
      <stop offset=".2" stop-color="#06a2f9" stop-opacity=".07"/>
      <stop offset=".51" stop-color="#06a2f9" stop-opacity=".2"/>
    </radialGradient>
    <filter id="outer-glow-1" x="-14" y="15" width="284" height="226" filterUnits="userSpaceOnUse">
      <feOffset dx="0" dy="0"/>
      <feGaussianBlur result="blur" stdDeviation="20"/>
      <feFlood flood-color="#06a2f9" flood-opacity=".75"/>
      <feComposite in2="blur" operator="in"/>
      <feComposite in="SourceGraphic"/>
    </filter>
    <radialGradient id="radial-gradient-2" cx="80.56" cy="68.38" fx="80.56" fy="68.38" r="138.01" gradientUnits="userSpaceOnUse">
      <stop offset="0" stop-color="#06a2f9" stop-opacity=".2"/>
      <stop offset=".93" stop-color="#06a2f9" stop-opacity="0"/>
    </radialGradient>
  </defs>
  <g id="Layer_3" data-name="Layer 3">
    <rect class="cls-3" width="256" height="256" rx="68.42" ry="68.42"/>
  </g>
  <g id="Layer_2" data-name="Layer 2">
    <g>
      <g class="cls-2">
        <path class="cls-4" d="M132.28,180.67c-2.29,0-4.5-.75-6.34-2.17l-7.45-5.77c-1.31-1.01-1.55-2.9-.54-4.21,1.01-1.31,2.9-1.55,4.21-.54l7.45,5.77c.93.72,2.08,1.03,3.24.88,1.16-.15,2.2-.74,2.91-1.67.72-.93,1.03-2.08.88-3.24-.15-1.16-.74-2.2-1.67-2.91-1.31-1.01-1.55-2.9-.54-4.21,1.01-1.31,2.9-1.55,4.21-.54,2.19,1.7,3.6,4.15,3.95,6.9.35,2.75-.39,5.48-2.09,7.67-1.7,2.19-4.15,3.59-6.9,3.95-.45.06-.89.08-1.33.08Z"/>
        <path class="cls-4" d="M146.97,173.35c-2.22,0-4.46-.71-6.34-2.17l-9.96-7.71c-1.31-1.01-1.55-2.9-.54-4.21,1.01-1.31,2.9-1.55,4.21-.54l9.96,7.71c1.92,1.48,4.67,1.13,6.15-.78,1.48-1.91,1.13-4.67-.78-6.15-1.31-1.01-1.55-2.9-.54-4.21,1.01-1.31,2.9-1.55,4.21-.54,4.53,3.5,5.36,10.04,1.86,14.57-2.04,2.64-5.12,4.02-8.23,4.02Z"/>
        <path class="cls-4" d="M159.53,164.4c-2.22,0-4.46-.71-6.34-2.17l-16.11-12.47c-1.31-1.01-1.55-2.9-.54-4.21,1.01-1.31,2.9-1.55,4.21-.54l16.11,12.47c1.91,1.48,4.67,1.13,6.15-.78,1.48-1.91,1.13-4.67-.78-6.15-1.31-1.01-1.55-2.9-.54-4.21,1.01-1.31,2.9-1.55,4.21-.54,4.53,3.5,5.36,10.04,1.86,14.57-2.04,2.64-5.12,4.02-8.23,4.02Z"/>
        <path class="cls-4" d="M171.07,154.64c-2.22,0-4.46-.71-6.34-2.17l-20.69-16.01c-1.31-1.01-1.55-2.9-.54-4.21,1.01-1.31,2.9-1.55,4.21-.54l20.69,16.01c1.91,1.48,4.67,1.13,6.15-.78,1.48-1.91,1.13-4.67-.78-6.15l-1.16-.9s-.08-.06-.12-.09l-36.96-28.61-17.01,10.25c-5.51,3.32-12.55,2.18-16.73-2.7-2.36-2.76-3.46-6.28-3.08-9.89.38-3.62,2.18-6.83,5.06-9.04l19.99-15.33c5.08-3.89,11.78-5.17,17.94-3.42l20.98,5.98,20.56-11.35c1.41-.78,3.18-.3,4.02,1.07l22.2,36.66c.82,1.36.45,3.12-.86,4.02l-29.39,20.34c2.91,3.66,3.07,8.97.09,12.83-2.04,2.64-5.12,4.02-8.23,4.02ZM135.74,104.57c.65,0,1.3.21,1.84.63l36.91,28.57,28.38-19.63-19.25-31.78-19.12,10.55c-.69.38-1.51.48-2.27.26l-22.17-6.32c-4.33-1.24-9.06-.34-12.64,2.41l-19.99,15.33c-1.57,1.2-2.54,2.94-2.75,4.9-.21,1.96.39,3.87,1.67,5.37,2.27,2.65,6.09,3.27,9.08,1.47l18.77-11.31c.48-.29,1.01-.43,1.55-.43Z"/>
        <path class="cls-4" d="M111.28,179.12c-2.64,0-5.14-.98-7.08-2.8-2.03-1.89-3.2-4.46-3.29-7.24-.09-2.77.9-5.42,2.79-7.44l3.78-4.05c1.89-2.03,4.46-3.2,7.24-3.29,2.76-.1,5.42.9,7.44,2.79,2.03,1.89,3.2,4.46,3.29,7.24.09,2.77-.9,5.42-2.79,7.44l-3.78,4.05c-1.89,2.03-4.46,3.2-7.24,3.29-.12,0-.24,0-.36,0ZM115.08,160.3c-.05,0-.1,0-.15,0-1.17.04-2.26.53-3.06,1.39l-3.78,4.05c-.8.86-1.22,1.97-1.18,3.14.04,1.17.53,2.26,1.39,3.06.86.8,1.98,1.22,3.14,1.18,1.17-.04,2.26-.53,3.06-1.39l3.78-4.05c.8-.86,1.22-1.97,1.18-3.14-.04-1.17-.53-2.26-1.39-3.06-.82-.77-1.88-1.18-2.99-1.18Z"/>
        <path class="cls-4" d="M97.13,172.63c-2.54,0-5.09-.92-7.09-2.79h0c-4.18-3.91-4.41-10.49-.5-14.68l7.87-8.42c3.91-4.18,10.49-4.41,14.68-.5,4.18,3.91,4.41,10.49.5,14.68l-7.87,8.42c-2.04,2.19-4.81,3.29-7.59,3.29ZM94.14,165.46c1.77,1.65,4.55,1.56,6.2-.21l7.87-8.42c1.65-1.77,1.56-4.55-.21-6.2-1.77-1.65-4.55-1.55-6.2.21l-7.87,8.42c-1.65,1.77-1.56,4.55.21,6.2h0Z"/>
        <path class="cls-4" d="M84.64,164.36c-2.64,0-5.14-.99-7.08-2.8h0c-4.18-3.91-4.41-10.49-.5-14.68l8.92-9.55c3.91-4.18,10.49-4.41,14.68-.5,2.03,1.89,3.2,4.46,3.29,7.24.09,2.77-.9,5.42-2.79,7.44l-8.92,9.55c-1.89,2.03-4.46,3.2-7.24,3.29-.12,0-.24,0-.36,0ZM93.57,140.04c-1.17,0-2.34.47-3.21,1.39l-8.92,9.55c-1.65,1.77-1.56,4.55.21,6.2h0c.86.8,1.97,1.22,3.14,1.18,1.17-.04,2.26-.53,3.06-1.39l8.92-9.55c.8-.86,1.22-1.97,1.18-3.14-.04-1.17-.53-2.26-1.39-3.06-.84-.79-1.92-1.18-2.99-1.18Z"/>
        <path class="cls-4" d="M76.1,151.86c-2.54,0-5.09-.92-7.09-2.79h0c-2.03-1.89-3.2-4.46-3.29-7.24-.09-2.77.9-5.42,2.79-7.44l4.69-5.02c1.89-2.03,4.46-3.2,7.24-3.29,2.77-.11,5.42.9,7.44,2.79,4.18,3.91,4.41,10.49.5,14.68l-4.69,5.02c-2.04,2.19-4.81,3.29-7.59,3.29ZM73.11,144.69c1.77,1.65,4.55,1.56,6.2-.21l4.69-5.02c1.65-1.77,1.56-4.55-.21-6.2-.86-.8-1.96-1.21-3.14-1.18-1.17.04-2.26.53-3.06,1.39l-4.69,5.02c-.8.86-1.22,1.97-1.18,3.14.04,1.17.53,2.26,1.39,3.06h0Z"/>
        <path class="cls-4" d="M73.94,135.17c-.59,0-1.18-.17-1.7-.53l-24.83-17.18c-1.3-.9-1.68-2.66-.86-4.02l22.2-36.66c.83-1.38,2.61-1.85,4.02-1.07l20.56,11.35,20.98-5.98c5.08-1.45,10.44-.88,15.1,1.59,1.46.78,2.02,2.59,1.24,4.06-.78,1.46-2.59,2.02-4.06,1.24-3.28-1.75-7.06-2.14-10.64-1.12l-22.17,6.32c-.76.22-1.58.12-2.27-.26l-19.12-10.55-19.25,31.78,22.51,15.57c1.36.94,1.7,2.81.76,4.17-.58.84-1.52,1.29-2.47,1.29Z"/>
      </g>
      <path class="cls-1" d="M175.6,138.42l-1.22-.94,32.5-22.49-22.2-36.66-21.64,11.95-22.17-6.32c-4.34-1.24-8.95-.72-12.87,1.36h0c-3.92-2.09-8.53-2.6-12.87-1.36l-22.17,6.32-21.64-11.95-22.2,36.66,24.83,17.18.43.35-3.66,3.92c-2.78,2.98-2.63,7.65.36,10.44h0c2.98,2.78,7.65,2.63,10.44-.36l-2.25,2.41c-2.78,2.98-2.63,7.65.36,10.44,2.98,2.78,7.65,2.63,10.44-.36l7.17-7.68h0l-5.49,5.88c-2.78,2.98-2.63,7.65.36,10.44h0c2.98,2.78,7.65,2.63,10.44-.36l3.58-3.84-.22.23c-2.78,2.98-2.63,7.65.36,10.44,2.98,2.78,7.65,2.63,10.44-.36l3.39-3.62.25.2.9-.55.48.05-1.38.49,7.45,5.77c3.23,2.5,7.86,1.91,10.36-1.32h0c2.5-3.23,1.91-7.86-1.32-10.36h0l5.64,4.37c3.23,2.5,7.86,1.91,10.36-1.32,2.5-3.23,1.91-7.86-1.32-10.36l3.53,2.73c3.23,2.5,7.86,1.91,10.36-1.32,2.5-3.23,1.91-7.86-1.32-10.36l2.49,1.93c3.23,2.5,7.86,1.91,10.36-1.32h0c2.5-3.23,1.91-7.86-1.32-10.36Z"/>
    </g>
  </g>
</svg>