<?xml version="1.0" encoding="UTF-8"?>
<svg xmlns="http://www.w3.org/2000/svg" width="256" height="256" xmlns:xlink="http://www.w3.org/1999/xlink" viewBox="0 0 256 256">
  <defs>
    <style>
      .cls-1 {
        fill: url(#radial-gradient-2);
      }

      .cls-2 {
        filter: url(#outer-glow-1);
      }

      .cls-3 {
        fill: url(#radial-gradient);
      }

      .cls-4 {
        fill: #06a2f9;
      }
    </style>
    <radialGradient id="radial-gradient" cx="128" cy="128" fx="128" fy="128" r="314.54" gradientUnits="userSpaceOnUse">
      <stop offset="0" stop-color="#06a2f9" stop-opacity="0"/>
      <stop offset=".2" stop-color="#06a2f9" stop-opacity=".07"/>
      <stop offset=".51" stop-color="#06a2f9" stop-opacity=".2"/>
    </radialGradient>
    <filter id="outer-glow-1" x="19" y="15" width="218" height="226" filterUnits="userSpaceOnUse">
      <feOffset dx="0" dy="0"/>
      <feGaussianBlur result="blur" stdDeviation="20"/>
      <feFlood flood-color="#06a2f9" flood-opacity=".75"/>
      <feComposite in2="blur" operator="in"/>
      <feComposite in="SourceGraphic"/>
    </filter>
    <radialGradient id="radial-gradient-2" cx="105.26" cy="67.85" fx="105.26" fy="67.85" r="109.24" gradientUnits="userSpaceOnUse">
      <stop offset="0" stop-color="#06a2f9" stop-opacity=".2"/>
      <stop offset=".93" stop-color="#06a2f9" stop-opacity="0"/>
    </radialGradient>
  </defs>
  <g id="Layer_3" data-name="Layer 3">
    <rect class="cls-3" width="256" height="256" rx="68.42" ry="68.42"/>
  </g>
  <g id="Layer_2" data-name="Layer 2">
    <g>
      <g class="cls-2">
        <path class="cls-4" d="M128,180.08c-2.3,0-4.62-.16-6.91-.46-3.57-.48-6.48-3.08-7.43-6.62l-2.44-9.11c-.69-2.57-3.34-4.1-5.92-3.42l-9.11,2.44c-3.54.95-7.25-.28-9.44-3.13-2.82-3.66-5.15-7.68-6.9-11.95-1.37-3.33-.58-7.16,2.01-9.76l6.67-6.67c1.88-1.88,1.88-4.95,0-6.83l-6.67-6.67c-2.59-2.59-3.38-6.42-2.01-9.76,1.76-4.27,4.08-8.29,6.91-11.95,2.2-2.85,5.9-4.08,9.44-3.13l9.11,2.44c2.57.69,5.23-.84,5.92-3.42l2.44-9.11c.95-3.54,3.87-6.14,7.43-6.62,4.57-.61,9.25-.61,13.81,0,3.57.48,6.48,3.08,7.43,6.61l2.44,9.11c.69,2.57,3.34,4.1,5.92,3.42l9.11-2.44c3.54-.95,7.25.28,9.44,3.13,2.82,3.66,5.15,7.68,6.9,11.95,1.37,3.33.58,7.16-2.01,9.76l-6.67,6.67c-1.88,1.88-1.88,4.95,0,6.83l6.67,6.67c2.59,2.59,3.38,6.42,2.01,9.76-1.76,4.27-4.08,8.29-6.91,11.95-2.2,2.85-5.9,4.08-9.44,3.13l-9.11-2.44c-2.57-.68-5.23.84-5.92,3.42l-2.44,9.11h0c-.95,3.54-3.87,6.14-7.43,6.62-2.29.31-4.61.46-6.91.46ZM106.55,154.31c4.78,0,9.17,3.2,10.46,8.03l2.44,9.11c.31,1.18,1.29,2.07,2.43,2.22,4.04.54,8.18.54,12.22,0,1.14-.15,2.12-1.05,2.43-2.22l2.44-9.11c1.55-5.77,7.5-9.21,13.26-7.66l9.11,2.44c1.18.31,2.44-.08,3.14-1,2.5-3.24,4.55-6.79,6.11-10.57.44-1.07.16-2.37-.71-3.23l-6.67-6.67c-4.22-4.22-4.22-11.09,0-15.31l6.67-6.67c.86-.86,1.14-2.16.7-3.23-1.56-3.78-3.61-7.33-6.11-10.57-.7-.91-1.96-1.31-3.14-1l-9.11,2.44c-5.77,1.55-11.72-1.89-13.26-7.66l-2.44-9.11c-.31-1.17-1.29-2.07-2.43-2.22-4.04-.54-8.18-.54-12.22,0-1.14.15-2.12,1.04-2.43,2.22l-2.44,9.11c-1.55,5.77-7.5,9.2-13.26,7.66l-9.11-2.44c-1.18-.31-2.44.09-3.14,1-2.5,3.24-4.55,6.79-6.11,10.57-.44,1.07-.16,2.37.71,3.23l6.67,6.67c4.22,4.22,4.22,11.09,0,15.31l-6.67,6.67c-.86.86-1.15,2.16-.7,3.23,1.56,3.78,3.61,7.33,6.11,10.57.7.91,1.97,1.31,3.14,1l9.11-2.44c.94-.25,1.88-.37,2.8-.37ZM139.44,172.23h0,0ZM128,148.33c-11.21,0-20.33-9.12-20.33-20.33s9.12-20.33,20.33-20.33,20.33,9.12,20.33,20.33-9.12,20.33-20.33,20.33ZM128,113.67c-7.9,0-14.33,6.43-14.33,14.33s6.43,14.33,14.33,14.33,14.33-6.43,14.33-14.33-6.43-14.33-14.33-14.33Z"/>
      </g>
      <path class="cls-1" d="M165.35,133.54c-3.06-3.06-3.06-8.02,0-11.07l6.67-6.67c1.7-1.7,2.27-4.27,1.36-6.49-1.67-4.05-3.87-7.84-6.51-11.26-1.47-1.9-3.97-2.68-6.29-2.06l-9.11,2.44c-4.18,1.12-8.47-1.36-9.59-5.54l-2.44-9.11c-.62-2.32-2.55-4.1-4.93-4.42-2.13-.29-4.3-.43-6.51-.43s-4.38.15-6.51.43c-2.38.32-4.31,2.1-4.93,4.42l-2.44,9.11c-1.12,4.18-5.41,6.66-9.59,5.54l-9.11-2.44c-2.32-.62-4.83.16-6.29,2.06-2.64,3.42-4.84,7.2-6.51,11.26-.92,2.22-.34,4.79,1.36,6.49l6.67,6.67c3.06,3.06,3.06,8.02,0,11.07l-6.67,6.67c-1.7,1.7-2.27,4.27-1.36,6.49,1.67,4.05,3.87,7.84,6.51,11.26,1.47,1.9,3.97,2.68,6.29,2.06l9.11-2.44c4.18-1.12,8.47,1.36,9.59,5.54l2.44,9.11c.62,2.32,2.55,4.1,4.93,4.42,2.13.29,4.3.43,6.51.43s4.38-.15,6.51-.43c2.38-.32,4.31-2.1,4.93-4.42l2.44-9.11c1.12-4.18,5.41-6.66,9.59-5.54l9.11,2.44c2.32.62,4.83-.16,6.29-2.06,2.64-3.42,4.84-7.2,6.51-11.26.92-2.22.34-4.79-1.36-6.49l-6.67-6.67ZM128,145.33c-9.57,0-17.33-7.76-17.33-17.33,0-9.57,7.76-17.33,17.33-17.33s17.33,7.76,17.33,17.33-7.76,17.33-17.33,17.33Z"/>
    </g>
  </g>
</svg>